<?xml version="1.0" encoding="UTF-8"?>
<svg id="Layer_1" xmlns="http://www.w3.org/2000/svg" version="1.1" viewBox="0 0 612 588.6">
  <!-- Generator: Adobe Illustrator 30.0.0, SVG Export Plug-In . SVG Version: 2.1.1 Build 123)  -->
  <defs>
    <style>
      .st0 {
        fill: #e0e0e0;
      }
    </style>
  </defs>
  <path class="st0" d="M583,40.7v285l-96.3-55.6v-62.7c0-7-5.7-12-12-12s-4,.5-5.9,1.6l-54.3,31.4-96.3-55.6L564.8,30.2c1.9-1.1,4-1.6,6-1.6,6.3,0,12.1,5.1,12.1,12.1h0Z"/>
  <path class="st0" d="M558.9,478.6l-72.2,41.7-12,7-12,6.9-42,24.2c-1.9,1.1-4,1.7-6.2,1.7s-4.2-.6-6.2-1.7l-72.1-41.7c-8-4.6-8-16.2,0-20.8l126.5-73.1,12,6.9,12,7,72.2,41.7h0Z"/>
  <path class="st0" d="M583,353.4v111.3l-96.3-55.6-12-6.9-12-6.9-144.5-83.4-12-6.9-12-6.9-96.3-55.6-24.1-13.9-30.4-17.6c-1.9-1.1-3.9-1.6-5.9-1.6-6.2,0-11.8,4.9-11.8,11.8v292.4c0,7-5.7,12-12,12s-4.1-.5-6-1.6l-72.5-41.9c-3.6-2.1-5.8-5.9-5.8-10.1V54.6c0-7.1,5.8-12.1,12.2-12.1s4,.5,6,1.7l222.7,128.5,12,6.9,12,7,96.3,55.6,12,6.9,12.1,7,48.2,27.8,12,6.9,12,7,96.3,55.6h0Z"/>
</svg>