<svg width="323" height="885" viewBox="0 0 323 885" fill="none" xmlns="http://www.w3.org/2000/svg">
<path d="M116.747 15.5895C105.505 13.8573 92.5328 12.1252 77.8314 10.393C54.8033 6.32316 33.0708 24.3952 34.8894 47.7093C39.1888 102.829 42.6929 149.717 45.4016 188.373C48.8608 236.874 51.4552 275.415 53.1848 303.995C55.7792 338.639 57.0763 364.621 57.0763 381.943C57.0763 398.399 56.2116 419.185 54.482 444.301C52.7524 465.953 50.5904 493.235 47.996 526.146C46.3669 546.268 43.8853 569.123 40.5513 594.709C37.1776 620.599 56.4308 644.101 82.513 645.288L109.749 646.528C131.627 647.524 150.891 632.271 155.069 610.773C161.796 576.151 168.048 545.343 173.823 518.351C181.606 481.976 187.66 451.23 191.984 426.113C197.173 397.533 201.497 373.282 204.956 353.362C209.28 333.442 216.198 307.893 225.711 276.714C234.359 249.865 246.466 216.088 262.032 175.382C271.979 148.817 283.868 118.539 297.699 84.5477C309.551 55.4211 288.262 23.3843 256.816 23.3843H249.06C228.305 23.3843 210.577 22.9512 195.876 22.0851C179.444 21.2191 165.175 20.353 153.068 19.4869C141.826 18.6208 129.719 17.3217 116.747 15.5895Z" fill="white"/>
<path d="M63.5625 732.707C92.1004 720.582 115.45 716.251 133.61 719.715C152.636 723.18 166.04 732.274 173.823 746.998C179.877 756.524 183.336 767.35 184.201 779.475C185.931 790.734 185.066 802.427 181.606 814.552C179.012 825.811 173.391 836.637 164.743 847.03C156.96 857.423 146.15 865.651 132.313 871.713C104.64 884.705 79.9929 888.17 58.373 882.107C36.7536 875.178 20.7554 863.919 10.3779 848.33C4.3244 839.669 0.864805 830.142 0 819.749C0 808.489 2.16237 797.663 6.48633 787.27C10.8103 776.011 17.7286 765.618 27.2412 756.091C36.7539 746.564 48.8611 738.769 63.5625 732.707ZM139.943 813.153C141.298 796.174 118.254 735.286 95.6846 746.33C93.0965 747.698 91.028 749.8 89.1572 752.079C76.7975 768.457 66.3438 786.473 51.4033 800.799C47.2238 804.858 42.9599 808.781 40.2021 813.875C35.2066 822.873 36.2445 834.518 42.002 842.942C44.1429 846.278 52.6864 855.115 55.6865 848.756C56.0499 847.999 56.3239 846.91 56.5605 845.934C58.191 836.685 61.946 826.507 69.8389 821.329C72.2723 819.713 75.7813 818.21 78.498 819.793C80.2924 820.836 81.5395 822.866 83.127 824.248C85.4077 826.399 88.6351 826.448 91.499 825.429C98.5463 823.265 104.563 815.275 109.158 818.677C111.476 820.956 111.719 824.406 111.415 828.107C111.298 829.185 111.098 830.261 110.828 831.315C110.249 833.59 109.352 835.747 108.352 837.733C104.871 844.63 101.856 847.087 103.371 849.395C104.178 850.653 106.617 850.936 108.286 850.895C110.395 850.869 112.76 850.412 114.849 849.679C128.822 844.908 140.152 829.668 139.943 813.178V813.153ZM95.3828 769.001C96.6331 764.632 99.197 765.284 102.091 768.085C104.931 770.786 106.701 773.272 108.542 777.597C110.584 782.864 112.475 789.869 110.986 795.372C108.443 806.318 90.0397 810.36 83.5439 800.419C81.759 796.776 84.1263 794.009 86.5244 789.367C90.1076 782.939 93.1816 775.981 95.3711 769.037L95.3828 769V769.001Z" fill="white"/>
</svg>
