<?xml version="1.0" encoding="UTF-8"?>
<svg id="Layer_1" data-name="Layer 1" xmlns="http://www.w3.org/2000/svg" viewBox="0 0 238 239">
  <defs>
    <style>
      .cls-1 {
        stroke: #000;
        stroke-miterlimit: 10;
        stroke-width: 2px;
      }
    </style>
  </defs>
  <path class="cls-1" d="M143.94,164.02c0-8.07,2.93-15,8.72-20.62,9.43-9.17,14.65-21.48,14.65-34.65,0-26.64-21.67-48.31-48.31-48.31s-48.31,21.67-48.31,48.31c0,13.17,5.19,25.48,14.65,34.65,5.79,5.62,8.72,12.55,8.72,20.62v15.75c0,6.26,4.8,11.41,10.93,11.97,1.23,6.63,7.04,11.66,14.01,11.66s12.79-5.04,14.03-11.66c6.13-.56,10.93-5.71,10.93-11.97v-15.75h-.02ZM89.05,139.58c-8.41-8.17-13.04-19.11-13.04-30.84,0-23.71,19.28-43,42.98-43s43,19.29,43,43c0,11.73-4.63,22.68-13.02,30.84-6.86,6.65-10.33,14.87-10.33,24.44v3.66h-11.99c-.02-.8-.04-1.61-.06-2.41-.22-9.56-.51-20.92-.11-30.58,1.59-.54,3.12-1.25,4.56-2.13,11.25-6.86,10.87-15.28,10.48-17.69-.62-3.9-3.14-6.93-6.39-7.69-3.36-.79-6.82.86-9.43,4.54-2.5,3.49-3.75,9.94-4.33,18.72-.77.09-1.55.15-2.34.13h-.06c-.79,0-1.57-.04-2.34-.13-.56-8.39-1.81-15.2-4.31-18.72-2.63-3.68-6.07-5.32-9.43-4.54-3.27.77-5.77,3.79-6.39,7.69-.39,2.41-.77,10.83,10.48,17.69,1.46.88,2.99,1.59,4.58,2.13.37,9.34.09,20.25-.13,29.42-.04,1.19-.06,2.39-.09,3.57h-11.96v-3.66c.01-9.55-3.46-17.76-10.32-24.44h0ZM116.9,135.79c.69.06,1.4.09,2.11.07.71,0,1.42-.02,2.11-.07-.28,8.33-.11,18.33.17,29.61.02.77.04,1.53.06,2.28h-4.71c.02-1.12.06-2.28.09-3.44.22-9.49.46-19.54.16-28.45h0ZM126.84,128.83c.52-6.5,1.49-11.63,3.2-14.03,1.16-1.62,2.39-2.5,3.48-2.5.15,0,.28.02.43.06,1.14.26,2.1,1.62,2.37,3.36.52,3.29-1.31,8.24-8.02,12.33-.49.28-.98.54-1.46.79h0ZM111.2,128.83c-.51-.24-.99-.51-1.47-.8-6.71-4.07-8.54-9.04-8.02-12.33.28-1.74,1.23-3.08,2.37-3.36.13-.04.28-.06.43-.06,1.09,0,2.32.88,3.48,2.5,1.74,2.42,2.71,7.58,3.21,14.04h0ZM119.01,198.09c-4.02,0-7.42-2.65-8.54-6.29h17.09c-1.14,3.64-4.53,6.29-8.55,6.29h0ZM131.92,186.49h-25.82c-3.72,0-6.72-3.02-6.72-6.72v-6.76h39.29v6.76c-.03,3.69-3.03,6.72-6.75,6.72h0ZM119.01,49.51c-1.46,0-2.65-1.19-2.65-2.65v-8.6c0-1.46,1.19-2.65,2.65-2.65s2.65,1.19,2.65,2.65v8.6c0,1.46-1.19,2.65-2.65,2.65ZM182.35,72.18c.73,1.27.3,2.9-.97,3.63l-7.45,4.3c-.41.24-.88.36-1.32.36-.92,0-1.81-.49-2.3-1.32-.73-1.27-.3-2.9.97-3.63l7.45-4.3c1.27-.74,2.89-.3,3.62.97h0ZM180.9,106.09h15.13c1.46,0,2.65,1.19,2.65,2.65s-1.19,2.65-2.65,2.65h-15.13c-1.46,0-2.65-1.19-2.65-2.65s1.2-2.65,2.65-2.65ZM148.62,57.45c-1.27-.73-1.7-2.35-.97-3.63l7.57-13.12c.73-1.27,2.35-1.7,3.63-.97,1.27.73,1.7,2.35.97,3.63l-7.57,13.12c-.49.86-1.38,1.32-2.3,1.32-.45,0-.9-.11-1.33-.35h0ZM85.78,56.48l-7.57-13.12c-.73-1.27-.3-2.9.97-3.63,1.27-.73,2.9-.3,3.63.97l7.57,13.12c.73,1.27.3,2.9-.97,3.63-.41.24-.88.36-1.32.36-.92,0-1.82-.47-2.3-1.33h0ZM170.31,138.37c.73-1.27,2.35-1.7,3.63-.97l7.45,4.3c1.27.73,1.7,2.35.97,3.63-.49.86-1.38,1.32-2.3,1.32-.45,0-.92-.11-1.32-.36l-7.45-4.3c-1.28-.72-1.71-2.35-.98-3.62h0ZM67.72,138.37c.73,1.27.3,2.9-.97,3.63l-7.45,4.3c-.41.24-.88.36-1.32.36-.92,0-1.81-.46-2.3-1.32-.73-1.27-.3-2.9.97-3.63l7.45-4.3c1.27-.73,2.89-.3,3.62.97h0ZM41.97,106.09h15.13c1.46,0,2.65,1.19,2.65,2.65s-1.19,2.65-2.65,2.65h-15.13c-1.46,0-2.65-1.19-2.65-2.65s1.19-2.65,2.65-2.65ZM67.72,79.14c-.49.86-1.38,1.32-2.3,1.32-.45,0-.89-.11-1.32-.36l-7.45-4.3c-1.27-.73-1.7-2.35-.97-3.63.73-1.27,2.35-1.7,3.63-.97l7.45,4.3c1.27.74,1.69,2.36.97,3.63h0Z"/>
</svg>