<?xml version="1.0" encoding="UTF-8"?>
<svg id="Layer_1" data-name="Layer 1" xmlns="http://www.w3.org/2000/svg" viewBox="0 0 1200 1200">
  <defs>
    <style>
      .cls-1 {
        fill: #fff;
      }
    </style>
  </defs>
  <path class="cls-1" d="M160.5,732.27l166.17,68.38c17.17,95.66,128.25,142.68,209,86.69,28.54-19.79,52.86-56.47,56.35-91.53.68-6.87-1.51-22.88,1.92-26.98l153.04-108.72c142.97,2.51,231.29-157.97,147.49-276.82-99.02-140.43-317.98-66.97-318.86,102.05l-108.59,158.27c-31.39-2.05-59.42,7.01-85.69,23.32l-237.88-100.32c-2.36-2.31-1.85-5.57-1.69-8.49,9.05-161.28,129.74-316.6,275.95-378.56,380.08-161.07,762.94,219.1,603.66,600.26-132.24,316.44-564.21,377.57-779.24,109.64-36.38-45.33-66.97-100.97-81.62-157.18Z"/>
  <path class="cls-1" d="M738.05,369.02c116.08-11.97,176.38,132.25,86.14,205.13-79.28,64.02-196.49-.5-187.56-100.87,4.68-52.6,48.52-98.8,101.42-104.26ZM737.99,396.15c-108.35,13.79-93.93,188.64,24.85,176.13,112.94-11.89,98.18-191.78-24.85-176.13Z"/>
  <path class="cls-1" d="M371.25,820.67c20.71,6.16,39.47,17.92,60.31,23.81,92.32,26.05,137.48-93.96,53.65-135.24l-59.56-24.55c86.61-29.61,163.6,61.89,117.56,142.2-38.4,66.99-138.16,62.33-171.96-6.22Z"/>
</svg>