<?xml version="1.0" encoding="UTF-8"?>
<svg id="Layer_1" data-name="Layer 1" xmlns="http://www.w3.org/2000/svg" viewBox="0 0 1200 1200">
  <defs>
    <style>
      .cls-1 {
        fill: #fff;
      }
    </style>
  </defs>
  <path class="cls-1" d="M219.2,340c41.6-6.4,102.4-12,197.6-12,80.8,0,137.6,16,175.2,43.2,37.6,26.4,65.6,74.4,65.6,132.8,0,52-17.6,100.8-52.8,131.2-46.4,40.8-112,59.2-195.2,59.2-16.8,0-31.2-1.6-40.8-2.4v180h-149.6V340ZM368.8,577.6c8.8,1.6,20,2.4,39.2,2.4,58.4,0,100-26.4,100-75.2,0-39.2-29.6-64.8-89.6-64.8-25.6,0-41.6,1.6-49.6,3.2v134.4Z"/>
  <path class="cls-1" d="M703.2,613.6c0-69.6-.8-104.8-3.2-135.2h128.8l4.8,76h3.2c21.6-64.8,77.6-85.6,114.4-85.6,12.8,0,18.4,0,29.6,2.4v140c-11.2-2.4-23.2-4.8-40-4.8-52,0-80,21.6-85.6,51.2-.8,6.4-.8,12.8-.8,19.2v195.2h-151.2v-258.4Z"/>
</svg>