<?xml version="1.0" encoding="UTF-8"?>
<svg id="Layer_1" data-name="Layer 1" xmlns="http://www.w3.org/2000/svg" viewBox="0 0 1200 1200">
  <defs>
    <style>
      .cls-1 {
        fill: #fff;
      }
    </style>
  </defs>
  <path class="cls-1" d="M420.8,342.4v539.2h-151.2V342.4h151.2Z"/>
  <path class="cls-1" d="M927.2,308.8v448.8c0,51.2,1.6,103.2,3.2,124h-135.2l-5.6-56.8h-1.6c-29.6,49.6-82.4,66.4-131.2,66.4-92,0-181.6-72-181.6-203.2-.8-131.2,90.4-209.6,191.2-209.6,45.6,0,87.2,10.4,108,38.4h1.6v-208h151.2ZM776,664c0-5.6,0-12-.8-17.6-5.6-31.2-32-56-66.4-56-54.4,0-79.2,42.4-79.2,92,0,56.8,32.8,89.6,78.4,89.6,35.2,0,61.6-25.6,66.4-56,1.6-8.8,1.6-18.4,1.6-27.2v-24.8Z"/>
</svg>