<?xml version="1.0" encoding="UTF-8"?>
<svg id="Layer_1" data-name="Layer 1" xmlns="http://www.w3.org/2000/svg" viewBox="0 0 1200 1200">
  <defs>
    <style>
      .cls-1 {
        fill: #fff;
      }
    </style>
  </defs>
  <path class="cls-1" d="M619.53,646.37c1.71-30.58,16.69-57.52,39.28-76.62,22.15-18.76,51.97-30.22,84.51-30.22s62.32,11.46,84.49,30.22c22.57,19.1,37.55,46.04,39.28,76.59,1.71,31.42-10.92,60.61-33.07,82.24-22.59,22.01-54.72,35.82-90.7,35.82s-68.18-13.81-90.75-35.82c-22.17-21.64-34.77-50.82-33.04-82.21Z"/>
  <path class="cls-1" d="M422.41,708.16c.21,11.97,4.03,35.22,9.75,53.38,12.03,38.44,32.44,74,60.83,105.34,29.14,32.21,65.02,58.09,106.47,76.46,43.56,19.29,90.77,29.12,139.8,29.04,48.95-.06,96.15-10.09,139.72-29.53,41.45-18.55,77.3-44.53,106.39-76.76,28.38-31.47,48.76-67.09,60.82-105.53,6.06-19.42,9.9-39.13,11.43-58.91,1.5-19.49.87-39-1.89-58.51-5.4-38-18.55-73.66-38.79-106.16-18.52-29.87-42.38-56.02-70.76-78.02l.06-.05-286.4-219.91c-.26-.19-.47-.4-.74-.58-18.79-14.42-50.39-14.38-71.05.08-20.89,14.62-23.29,38.79-4.69,54.04l-.08.08,119.45,97.14-364.09.39h-.49c-30.09.03-59.02,19.78-64.75,44.73-5.89,25.42,14.55,46.51,45.84,46.62l-.05.11,184.54-.36-329.3,252.77c-.42.31-.87.63-1.26.94-31.06,23.79-41.11,63.34-21.54,88.37,19.86,25.45,62.08,25.5,93.47.15l179.72-147.09s-2.62,19.86-2.41,31.78ZM884.23,774.65c-37.03,37.73-88.87,59.12-144.97,59.23-56.18.1-108.02-21.1-145.05-58.76-18.09-18.35-31.39-39.47-39.59-61.97-8.04-22.11-11.16-45.57-9.09-69.24,1.96-23.14,8.85-45.21,19.84-65.18,10.8-19.63,25.68-37.37,44.05-52.38,36-29.33,81.82-45.21,129.76-45.28,47.98-.06,93.77,15.67,129.8,44.91,18.34,14.94,33.2,32.62,44,52.22,11.04,19.95,17.88,41.95,19.92,65.15,2.04,23.64-1.08,47.07-9.12,69.2-8.21,22.56-21.46,43.68-39.55,62.11Z"/>
</svg>