<?xml version="1.0" encoding="UTF-8"?>
<svg id="Layer_1" data-name="Layer 1" xmlns="http://www.w3.org/2000/svg" viewBox="0 0 1200 1200">
  <defs>
    <style>
      .cls-1 {
        fill: #fff;
      }
    </style>
  </defs>
  <path class="cls-1" d="M825.81,464.95c44.11-28.75,73.26-78.49,73.26-135.06,0-88.95-72.11-161.08-161.08-161.08h-275.98c-88.97,0-161.08,72.12-161.08,161.08,0,56.57,29.15,106.32,73.24,135.06-44.1,28.73-73.24,78.49-73.24,135.05s29.15,106.32,73.24,135.06c-44.1,28.73-73.24,78.49-73.24,135.05,0,89.14,73.03,161.08,161.8,161.08s163.29-72.58,163.29-162.54v-150.07c28.69,26.39,66.98,42.5,109.03,42.5h2.93c88.97,0,161.08-72.11,161.08-161.08,0-56.56-29.15-106.32-73.26-135.05ZM573.98,868.65c0,60.84-50.03,110.5-111.25,110.5s-109.75-49-109.75-109.03,48.61-108.83,108.66-109.03h112.34v107.57ZM573.98,709.03h-112.34c-60.05-.2-108.66-48.94-108.66-109.03s48.81-109.02,109.03-109.02h111.97v218.05ZM573.98,438.92h-111.97c-60.22,0-109.03-48.81-109.03-109.03s48.81-109.02,109.03-109.02h111.97v218.05ZM626.02,220.87h111.97c60.22,0,109.03,48.81,109.03,109.02s-48.81,109.03-109.03,109.03h-111.97v-218.05ZM737.99,709.03h-2.93c-60.22,0-109.03-48.81-109.03-109.03s48.81-109.02,109.03-109.02h2.93c60.22,0,109.03,48.81,109.03,109.02s-48.81,109.03-109.03,109.03Z"/>
</svg>