<?xml version="1.0" encoding="UTF-8"?>
<svg id="Layer_1" data-name="Layer 1" xmlns="http://www.w3.org/2000/svg" viewBox="0 0 1200 1200">
  <defs>
    <style>
      .cls-1 {
        fill: #fff;
      }
    </style>
  </defs>
  <path class="cls-1" d="M416.4,755.2l-34.4,131.2h-159.2l170.4-539.2h206.4l181.6,539.2h-168l-40-131.2h-156.8ZM550,644.8l-28.8-95.2c-9.6-30.4-20.8-69.6-30.4-100.8h-1.6c-8.8,31.2-16.8,70.4-25.6,101.6l-25.6,94.4h112Z"/>
  <path class="cls-1" d="M977.2,383.2c0,38.4-28.8,69.6-78.4,69.6s-76.8-31.2-76.8-69.6,28.8-69.6,77.6-69.6,76.8,30.4,77.6,69.6ZM823.6,886.4v-393.6h151.2v393.6h-151.2Z"/>
</svg>