<?xml version="1.0" encoding="UTF-8"?>
<svg id="Layer_1" data-name="Layer 1" xmlns="http://www.w3.org/2000/svg" viewBox="0 0 1200 1200">
  <defs>
    <style>
      .cls-1 {
        fill: #fff;
      }
    </style>
  </defs>
  <path class="cls-1" d="M1025.96,238.57l-188.75-91.3c-19.13-9.25-41.51-6.99-58.3,5.28-2.4,1.75-4.68,3.71-6.83,5.87l-361.35,331.38-157.4-120.1c-14.65-11.18-35.15-10.26-48.75,2.18l-50.48,46.16c-16.65,15.22-16.66,41.54-.04,56.79l136.5,125.18-136.5,125.18c-16.62,15.24-16.6,41.57.04,56.79l50.48,46.16c13.61,12.44,34.1,13.36,48.75,2.18l157.4-120.1,361.35,331.38c5.72,5.75,12.43,10.08,19.65,12.9,14.44,5.65,30.9,5.3,45.48-1.76l188.75-91.29c19.84-9.59,32.45-29.77,32.45-51.91V290.48c0-22.14-12.62-42.31-32.45-51.91ZM829.34,809.21l-274.18-209.21,274.18-209.21v418.41Z"/>
</svg>