<?xml version="1.0" encoding="UTF-8"?>
<svg id="Layer_1" data-name="Layer 1" xmlns="http://www.w3.org/2000/svg" viewBox="0 0 1200 1200">
  <defs>
    <style>
      .cls-1 {
        fill: #fff;
      }
    </style>
  </defs>
  <path class="cls-1" d="M302.8,733.6l-34.4,131.2H109.2l170.4-539.2h206.4l181.6,539.2h-168l-40-131.2h-156.8ZM436.4,623.2l-28.8-95.2c-9.6-30.4-20.8-69.6-30.4-100.8h-1.6c-8.8,31.2-16.8,70.4-25.6,101.6l-25.6,94.4h112Z"/>
  <path class="cls-1" d="M823.6,718.4c5.6,29.6,56,45.6,108,45.6,39.2,0,76.8-3.2,117.6-16l19.2,99.2c-53.6,21.6-107.2,27.2-157.6,27.2-147.2,0-230.4-79.2-230.4-204,0-77.6,53.6-208.8,216-208.8,140.8,0,194.4,104.8,194.4,204.8,0,20.8-3.2,43.2-5.6,52h-261.6ZM950.8,616.8c0-17.6-12-59.2-61.6-59.2-46.4,0-64.8,36.8-68,59.2h129.6Z"/>
</svg>