<?xml version="1.0" encoding="UTF-8"?>
<svg id="Layer_1" data-name="Layer 1" xmlns="http://www.w3.org/2000/svg" viewBox="0 0 1200 1200">
  <defs>
    <style>
      .cls-1 {
        fill: #fff;
      }
    </style>
  </defs>
  <path class="cls-1" d="M204.8,335.2c41.6-6.4,102.4-12,197.6-12,80.8,0,137.6,16,175.2,43.2,37.6,26.4,65.6,74.4,65.6,132.8,0,52-17.6,100.8-52.8,131.2-46.4,40.8-112,59.2-195.2,59.2-16.8,0-31.2-1.6-40.8-2.4v180h-149.6V335.2ZM354.4,572.8c8.8,1.6,20,2.4,39.2,2.4,58.4,0,100-26.4,100-75.2,0-39.2-29.6-64.8-89.6-64.8-25.6,0-41.6,1.6-49.6,3.2v134.4Z"/>
  <path class="cls-1" d="M682.4,741.6c24.8,15.2,82.4,32.8,120.8,32.8,32.8,0,44.8-6.4,44.8-20s-8-19.2-53.6-31.2c-92-24-128-72-127.2-122.4,0-80,72-136.8,180.8-136.8,53.6,0,102.4,12,128,24l-24,100.8c-20-9.6-62.4-24-97.6-24-24.8,0-40.8,4.8-40.8,20.8,0,12.8,13.6,20.8,64,34.4,82.4,22.4,116.8,61.6,117.6,124,0,72.8-58.4,132.8-190.4,132.8-61.6,0-112.8-12.8-148-29.6l25.6-105.6Z"/>
</svg>